<?xml version="1.0" encoding="utf-8"?>
<!-- Generator: Adobe Illustrator 19.1.0, SVG Export Plug-In . SVG Version: 6.00 Build 0)  -->
<svg version="1.1" id="Layer_1" xmlns="http://www.w3.org/2000/svg" xmlns:xlink="http://www.w3.org/1999/xlink" x="0px" y="0px"
	 viewBox="-347 269.5 95.4 65" style="enable-background:new -347 269.5 95.4 65;" xml:space="preserve">
<style type="text/css">
	.st0{fill:url(#SVGID_1_);}
	.st1{fill:#505151;}
	.st2{opacity:0.4;fill:#FFFFFF;enable-background:new    ;}
</style>
<g>
	
		<linearGradient id="SVGID_1_" gradientUnits="userSpaceOnUse" x1="-309.7134" y1="315.3224" x2="-214.3041" y2="315.3224" gradientTransform="matrix(1 -8.216476e-004 -8.216476e-004 -1 -37.0322 625.3679)">
		<stop  offset="0" style="stop-color:#5BCAEC"/>
		<stop  offset="0.1207" style="stop-color:#64C0DC"/>
		<stop  offset="0.3571" style="stop-color:#7CA4B1"/>
		<stop  offset="0.5228" style="stop-color:#8F8F8F"/>
		<stop  offset="0.5497" style="stop-color:#958B8B"/>
		<stop  offset="0.7492" style="stop-color:#BF736C"/>
		<stop  offset="0.906" style="stop-color:#D8645A"/>
		<stop  offset="1" style="stop-color:#E25E53"/>
	</linearGradient>
	<polygon class="st0" points="-251.6,315.9 -347,316 -347,304.6 -251.6,304.6 	"/>
</g>
<g>
	<g>
		<g id="XMLID_17_">
			<g id="XMLID_18_">
				<g>
					<path class="st1" d="M-296.3,316.5c-3.2,1.2-6.7-0.3-8-3.5c-1.2-3.2,0.3-6.7,3.5-8c3.2-1.3,6.7,0.3,8,3.5
						C-291.5,311.7-293.1,315.3-296.3,316.5z M-302.6,312.4c0.9,2.3,3.4,3.4,5.7,2.5c2.3-0.9,3.4-3.5,2.5-5.7
						c-0.9-2.2-3.5-3.4-5.7-2.5C-302.3,307.6-303.5,310.2-302.6,312.4z"/>
					<path class="st2" d="M-296.9,314.9c-2.2,0.9-4.8-0.3-5.7-2.5c-0.9-2.2,0.2-4.8,2.5-5.7c2.3-0.9,4.8,0.2,5.7,2.5
						C-293.5,311.5-294.6,314-296.9,314.9z"/>
				</g>
			</g>
		</g>
		<g>
			<g>
				<g>
					<path class="st1" d="M-295.1,311.9c-1,2.1-3.2,3-5.4,2"/>
				</g>
			</g>
		</g>
		<g>
			<g>
				<rect x="-299.7" y="303.7" class="st1" width="2" height="1.2"/>
			</g>
		</g>
		<g>
			<path class="st1" d="M-300.1,302.9v-5.1c0.1-0.7,0.7-1.3,1.5-1.3l0,0c0.8,0,1.5,0.6,1.5,1.3v5.1"/>
		</g>
	</g>
</g>
</svg>
