<?xml version="1.0" encoding="utf-8"?>
<!-- Generator: Adobe Illustrator 19.1.0, SVG Export Plug-In . SVG Version: 6.00 Build 0)  -->
<svg version="1.1" id="Layer_1" xmlns="http://www.w3.org/2000/svg" xmlns:xlink="http://www.w3.org/1999/xlink" x="0px" y="0px"
	 viewBox="0 0 38.1 38.6" style="enable-background:new 0 0 38.1 38.6;" xml:space="preserve">
<style type="text/css">
	.st0{opacity:0.4;fill:#FDF1ED;}
	.st1{fill:#FDF1ED;}
</style>
<circle class="st0" cx="18.9" cy="19.3" r="19.3"/>
<g>
	<path class="st1" d="M16.7,25.7v-1.4c0-0.6,0-1.1,0.1-1.6c0.1-0.5,0.2-0.9,0.4-1.3c0.2-0.4,0.4-0.8,0.7-1.2
		c0.3-0.4,0.7-0.8,1.1-1.2l1.6-1.6c0.5-0.4,0.9-0.9,1.2-1.4c0.3-0.5,0.5-1.1,0.5-1.8c0-0.9-0.3-1.7-0.9-2.4c-0.6-0.6-1.4-1-2.5-1
		c-0.6,0-1.1,0.1-1.5,0.3s-0.8,0.5-1.2,0.8c-0.3,0.3-0.6,0.8-0.7,1.2c-0.2,0.5-0.3,0.9-0.3,1.4l-4.5-0.4c0.1-1.2,0.5-2.2,0.9-3.1
		c0.5-0.9,1.1-1.7,1.8-2.3c0.7-0.6,1.6-1.1,2.6-1.4c1-0.3,2-0.5,3.1-0.5c1,0,2,0.2,3,0.5c0.9,0.3,1.8,0.7,2.5,1.3
		c0.7,0.6,1.3,1.3,1.7,2.2c0.4,0.9,0.6,1.9,0.6,3c0,0.8-0.1,1.4-0.3,2c-0.2,0.6-0.4,1.1-0.7,1.6c-0.3,0.5-0.7,0.9-1.1,1.4
		c-0.4,0.4-0.9,0.9-1.5,1.4c-0.5,0.4-0.9,0.8-1.2,1.1c-0.3,0.3-0.5,0.6-0.7,0.9c-0.2,0.3-0.3,0.7-0.4,1c-0.1,0.4-0.1,0.8-0.1,1.3
		v0.9H16.7z M16,30.8c0-0.8,0.3-1.4,0.9-2c0.6-0.6,1.2-0.8,2-0.8c0.8,0,1.4,0.3,2,0.8c0.6,0.5,0.9,1.2,0.9,2c0,0.8-0.3,1.4-0.9,2
		c-0.6,0.6-1.2,0.8-2,0.8c-0.4,0-0.8-0.1-1.1-0.2c-0.3-0.1-0.7-0.3-0.9-0.6c-0.3-0.2-0.5-0.5-0.6-0.9C16,31.5,16,31.1,16,30.8z"/>
</g>
</svg>
