<?xml version="1.0" encoding="utf-8"?>
<!-- Generator: Adobe Illustrator 19.1.0, SVG Export Plug-In . SVG Version: 6.00 Build 0)  -->
<svg version="1.1" id="Layer_1" xmlns="http://www.w3.org/2000/svg" xmlns:xlink="http://www.w3.org/1999/xlink" x="0px" y="0px"
	 viewBox="0 0 197.6 44.2" style="enable-background:new 0 0 197.6 44.2;" xml:space="preserve">
<style type="text/css">
	.st0{fill:#FDF1ED;}
	.st1{opacity:0.4;fill:#FDF1ED;}
</style>
<g>
	<g>
		<g>
			<path class="st0" d="M4.1,18v-6.9H0.2V7.9H8c0,0,0.1,2.4,0.1,2.9c2.5-2.1,4.8-3.3,7.7-3.3c2.9,0,4.9,1.4,5.9,3.8
				c2.9-2.5,5.2-3.8,8.2-3.8c4.5,0,6.5,3,6.5,6.8c0,0.4-0.1,12.1-0.1,12.1l3.9,0.1v3.3H29.9v-3.4h2.5V15.2c0-2.6-1-4.3-3.5-4.3
				c-2.5,0-4.7,1.6-6.6,3.9v11.7h3.9v3.3H15.7v-3.3h2.5V15.2c0-2.8-1.2-4.2-3.5-4.2c-2.3,0-4.2,1.4-6.5,3.7v11.7h3.9v3.3H0v-3.3h4.1
				V18z"/>
		</g>
		<g>
			<path class="st0" d="M72.3,18v-6.9h-3.9V7.9h7.9c0,0,0.1,2.4,0.1,2.9c2.5-2.1,4.8-3.3,7.7-3.3c2.9,0,4.9,1.4,5.9,3.8
				c2.9-2.5,5.2-3.8,8.2-3.8c4.5,0,6.5,3,6.5,6.8c0,0.4-0.1,12.1-0.1,12.1l3.9,0.1v3.3H98.1v-3.4h2.5V15.2c0-2.6-1-4.3-3.5-4.3
				c-2.5,0-4.7,1.6-6.6,3.9v11.7h3.9v3.3H83.9v-3.3h2.5V15.2c0-2.8-1.2-4.2-3.5-4.2c-2.3,0-4.2,1.4-6.5,3.7v11.7h3.9v3.3H68.2v-3.3
				h4.1V18z"/>
		</g>
		<g>
			<path class="st0" d="M124.1,19.9l-9.3-0.1c0.6,4.2,3.1,7,7.8,7c2.8,0,5.5-1,7.2-3l3.5,1.5c-2.1,3.1-6,4.9-10.8,4.9
				c-7.5,0-12.1-5.1-12.1-11.4c0-6.6,5.2-11.3,12-11.3c7.2,0,10.9,5.5,10.9,11.9c0,0.1,0,0.3,0,0.5L124.1,19.9z M122.2,17.1h7.1
				c-0.6-3.5-2.9-6.4-6.9-6.4c-4.4,0-6.9,2.7-7.5,6.4H122.2z"/>
		</g>
		<g>
			<path class="st0" d="M136.5,26.4h3.9V11.1h-4V7.9h8c0,0,0.1,2.4,0.1,2.8c2.8-2.2,5-3.2,7.7-3.2c4,0,6.4,2.7,6.4,7
				c0,0.4-0.1,11.9-0.1,11.9l3.9,0.1v3.3h-10.9v-3.3h3V16c0-3.2-0.8-5-3.4-5c-2.5,0-4.7,1.6-6.7,3.8v11.6h3.9v3.3h-11.9V26.4z"/>
		</g>
		<g>
			<path class="st0" d="M163.8,7.9h3.5V3.3l4-3.3v7.9h4.4v3.3h-4.4V17c0,1.1,0,7.2,0.1,7.6c0.1,1.5,0.9,2,2.2,2
				c0.6,0,1.4-0.1,2.1-0.4v3.5c-1,0.2-2,0.4-2.9,0.4c-3.1,0-5.3-1.4-5.5-5.2c0,0-0.1-6.6-0.1-7.6v-6h-3.4V7.9z"/>
		</g>
		<g>
			<path class="st0" d="M179.3,22.6h3.5c0,0.1,0,0.2,0,0.4c0,2.5,2.4,4.1,5.7,4.1c3.1,0,5-1.2,5-3.2c0-2.3-2-2.7-4.8-3.1
				c-3.9-0.5-9.4-1.7-9.4-6.9c0-3.6,3.2-6.3,8.1-6.3c2.1,0,4.1,0.5,5.5,1.1c0,0,0.1-0.8,0.1-0.8h3.4v7h-3.4c0,0-0.1-1.5-0.1-1.8
				c-1.3-1.5-3-2.3-5.4-2.3c-2.7,0-4.4,1.1-4.4,3c0,2.4,3.3,2.7,7.1,3.3c4,0.7,7.4,2.1,7.4,6.6c0,4-3.4,6.7-8.7,6.7
				c-2.5,0-4.4-0.5-6.1-1.6l-0.1,1.1h-3.6V22.6z"/>
		</g>
	</g>
	<g>
		<g id="XMLID_43_">
			<g id="XMLID_44_">
				<g>
					<path class="st0" d="M54.2,7.5c6.4,0,11.5,5.2,11.5,11.5c0,6.4-5.2,11.5-11.5,11.5S42.6,25.4,42.6,19
						C42.6,12.7,47.8,7.5,54.2,7.5z M62.4,19c0-4.5-3.7-8.3-8.2-8.3c-4.5,0-8.3,3.7-8.3,8.3c0,4.5,3.7,8.2,8.3,8.2
						C58.7,27.2,62.4,23.6,62.4,19z"/>
					<path class="st1" d="M54.2,10.8c4.5,0,8.2,3.7,8.2,8.3c0,4.5-3.7,8.2-8.2,8.2c-4.5,0-8.3-3.7-8.3-8.2
						C45.9,14.5,49.6,10.8,54.2,10.8z"/>
				</g>
			</g>
		</g>
		<g>
			<g>
				<g>
					<path class="st0" d="M53,12.5c4.4,0,8,3.6,8,8"/>
				</g>
			</g>
		</g>
		<g>
			<g>
				
					<rect x="48.9" y="28.6" transform="matrix(-0.3667 0.9303 -0.9303 -0.3667 96.7065 -4.83)" class="st0" width="2.2" height="3.7"/>
			</g>
		</g>
		<g>
			<path class="st0" d="M51.5,34L48,42.8c-0.5,1.2-2,1.7-3.4,1.2l0,0c-1.4-0.6-2.2-2-1.7-3.2l3.5-8.9"/>
		</g>
	</g>
</g>
</svg>
