<?xml version="1.0" encoding="utf-8"?>
<!-- Generator: Adobe Illustrator 19.1.0, SVG Export Plug-In . SVG Version: 6.00 Build 0)  -->
<svg version="1.1" id="Layer_1" xmlns="http://www.w3.org/2000/svg" xmlns:xlink="http://www.w3.org/1999/xlink" x="0px" y="0px"
	 viewBox="-383 273.4 58 78" style="enable-background:new -383 273.4 58 78;" xml:space="preserve">
<style type="text/css">
	.st0{fill:#505151;}
	.st1{opacity:0.4;fill:#FFFFFF;enable-background:new    ;}
</style>
<g>
	
		<image style="overflow:visible;opacity:0.3;enable-background:new    ;" width="300" height="408" xlink:href="17F94DFD.png"  transform="matrix(0.236 0 0 0.2394 -383.0002 265.4)">
	</image>
	<g>
		<g>
			<g id="XMLID_17_">
				<g id="XMLID_18_">
					<g>
						<path class="st0" d="M-347.2,339.6c-10.5,4.1-22.3-1.1-26.4-11.5c-4.1-10.5,1.1-22.3,11.5-26.4c10.4-4.1,22.3,1.1,26.4,11.5
							C-331.6,323.7-336.8,335.5-347.2,339.6z M-368.1,325.9c2.9,7.4,11.4,11.2,18.8,8.3c7.4-2.9,11.2-11.4,8.3-18.9
							c-2.9-7.4-11.4-11.1-18.9-8.2C-367.3,310.1-371,318.5-368.1,325.9z"/>
						<path class="st1" d="M-349.3,334.2c-7.5,2.9-15.9-0.8-18.8-8.3c-2.9-7.4,0.8-15.8,8.2-18.7c7.4-2.9,15.9,0.8,18.9,8.2
							C-338.2,322.8-341.9,331.3-349.3,334.2z"/>
					</g>
				</g>
			</g>
			<g>
				<g>
					<g>
						<path class="st0" d="M-343.3,324.4c-3.3,7.1-10.7,9.8-17.8,6.5"/>
					</g>
				</g>
			</g>
			<g>
				<g>
					
						<rect x="-357.2" y="295.8" transform="matrix(-2.991628e-003 1 -1 -2.991628e-003 -57.1732 655.1354)" class="st0" width="4" height="6.6"/>
				</g>
			</g>
			<g>
				<path class="st0" d="M-359.8,294.4l0.1-16.9c0-2.3,2.2-4.1,4.8-4.1l0,0c2.7,0,4.8,1.9,4.8,4.2v16.8"/>
			</g>
		</g>
	</g>
</g>
</svg>
